<svg preserveAspectRatio="none" overflow="visible" style="display: block;" width="16.7992" height="16.8001" viewBox="0 0 16.7992 16.8001" fill="none" xmlns="http://www.w3.org/2000/svg">
<g id="Group">
<path id="Vector" d="M16.7987 6.7863L16.6468 1.28059C16.6298 0.664969 16.1343 0.169456 15.5186 0.152417L10.0129 0.000465251C9.69124 -0.00852889 9.38696 0.113177 9.16021 0.339928L0.339386 9.16079C-0.113129 9.6133 -0.113129 10.3496 0.339386 10.8021L5.99708 16.4597C6.45062 16.9134 7.18476 16.9135 7.63841 16.4598L16.4593 7.63896C16.6837 7.41444 16.8075 7.10363 16.7987 6.7863ZM14.2778 5.31221C13.5065 6.08343 12.2583 6.0835 11.487 5.31221C10.7176 4.54277 10.7176 3.2908 11.487 2.5214C12.2583 1.75015 13.5065 1.75011 14.2778 2.5214C15.0472 3.2908 15.0472 4.54277 14.2778 5.31221Z" fill="#003044"/>
</g>
</svg>
